<?xml version="1.0" encoding="utf-8"?>
<!-- Generator: Adobe Illustrator 15.1.0, SVG Export Plug-In . SVG Version: 6.00 Build 0)  -->
<!DOCTYPE svg PUBLIC "-//W3C//DTD SVG 1.1//EN" "http://www.w3.org/Graphics/SVG/1.1/DTD/svg11.dtd">
<svg version="1.1" id="Layer_1" xmlns="http://www.w3.org/2000/svg" xmlns:xlink="http://www.w3.org/1999/xlink" x="0px" y="0px"
	 width="841.89px" height="777px" viewBox="0 0 841.89 777" enable-background="new 0 0 841.89 777" xml:space="preserve">
<g>
	<defs>
		<rect id="SVGID_1_" y="181.72" width="841.89" height="595.28"/>
	</defs>
	<clipPath id="SVGID_2_">
		<use xlink:href="#SVGID_1_"  overflow="visible"/>
	</clipPath>
	<path clip-path="url(#SVGID_2_)" fill="#F05825" d="M415.281,271.827c32.901-33.623,70.759-49.036,107.654-53.989
		c36.893-4.956,60.062-2,94.53,12.059c34.468,14.057,60.191,33.139,83.709,68.13c23.521,34.992,31.473,61.082,31.473,103.243
		v185.081H627.055V401.27c0-43.912-35.578-79.489-79.489-79.489c-43.912,0-79.488,35.577-79.488,79.489v185.081H362.486V401.27
		c0-43.912-35.579-79.489-79.49-79.489c-43.912,0-79.489,35.577-79.489,79.489v185.081H97.916V401.27
		c0-42.161,7.954-68.251,31.473-103.243c23.517-34.991,49.243-54.073,83.711-68.13c34.469-14.059,57.635-17.015,94.527-12.059
		C344.522,222.791,382.38,238.204,415.281,271.827"/>
	<path clip-path="url(#SVGID_2_)" fill="#8AC640" d="M362.488,401.36c0,44.127-35.578,79.88-79.49,79.88
		c-43.914,0-79.491-35.753-79.491-79.88H97.918c0,102.747,82.837,185.99,185.08,185.99c102.241,0,185.078-83.243,185.078-185.99
		c0-44.127,35.578-79.879,79.489-79.879c43.915,0,79.493,35.752,79.493,79.879h105.588c0-18.103-1.572-35.601-6.368-52.145
		c-22.425-77.351-94.484-133.844-178.713-133.844C445.325,215.372,362.488,298.614,362.488,401.36"/>
</g>
<g>
	<path fill="#F05825" d="M170.424,726.007v-43.339c0-3.851-1.269-7.196-3.801-10.036c-2.535-2.837-6.185-4.258-10.949-4.258
		c-9.834,0-14.75,4.767-14.75,14.294v43.339h-6.234v-43.339c0-4.257-1.421-7.652-4.258-10.188
		c-2.941-2.737-6.439-4.106-10.493-4.106c-4.158,0-7.655,1.319-10.492,3.954c-2.839,2.535-4.258,5.982-4.258,10.34v43.339h-6.235
		v-62.803h6.235v6.234c3.041-4.764,7.957-7.146,14.75-7.146c8.109,0,14.09,3.295,17.944,9.884c3.649-6.589,9.58-9.884,17.792-9.884
		c6.285,0,11.353,1.774,15.207,5.322c3.852,3.649,5.778,8.668,5.778,15.054v43.339H170.424z"/>
	<path fill="#F05825" d="M249.497,726.007V715.21c-6.591,7.907-14.955,11.861-25.091,11.861c-9.124,0-16.779-3.091-22.961-9.276
		c-6.287-6.284-9.428-13.989-9.428-23.113s3.091-16.777,9.276-22.962c6.285-6.284,13.99-9.428,23.114-9.428
		c10.036,0,18.4,3.953,25.091,11.861v-10.949h6.234v62.803H249.497z M242.958,676.13c-5.17-5.17-11.355-7.756-18.552-7.756
		c-7.299,0-13.484,2.535-18.552,7.604c-5.17,5.17-7.755,11.405-7.755,18.704c0,7.199,2.585,13.382,7.755,18.552
		c5.17,5.17,11.353,7.755,18.552,7.755c7.299,0,13.481-2.532,18.552-7.603c5.17-5.171,7.755-11.405,7.755-18.704
		C250.713,687.484,248.128,681.3,242.958,676.13z"/>
	<path fill="#F05825" d="M317.013,726.007l-32.846-32.694l-3.498,3.498v29.196h-6.234V613.479h6.234v74.359l27.22-27.067h8.82
		l-28.436,28.283l36.952,36.952H317.013z"/>
	<path fill="#F05825" d="M334.651,693.312c0,8.516,2.281,15.259,6.843,20.225c4.764,5.071,11.303,7.604,19.616,7.604
		c4.258,0,8.109-0.708,11.557-2.129c4.357-1.824,8.261-5.524,11.709-11.101l5.626,2.585c-3.954,7.504-10.037,12.571-18.248,15.207
		c-3.144,1.012-6.691,1.521-10.645,1.521c-9.428,0-17.183-3.092-23.266-9.276c-6.185-6.183-9.276-13.938-9.276-23.266
		c0-9.428,3.041-17.184,9.124-23.266c6.183-6.183,13.99-9.276,23.418-9.276c9.326,0,17.031,2.89,23.114,8.668
		c6.183,5.778,9.276,13.281,9.276,22.505H334.651z M377.533,673.393c-4.766-3.445-10.24-5.17-16.423-5.17
		c-12.978,0-21.493,6.387-25.547,19.16h50.942C385.49,681.604,382.499,676.942,377.533,673.393z"/>
</g>
<g>
	<path fill="#8AC640" d="M438.668,722.053c-4.055,3.448-8.922,5.171-14.598,5.171c-9.732,0-17.031-4.41-21.897-13.229l5.322-3.193
		c1.723,3.143,3.802,5.576,6.235,7.299c2.533,1.927,5.98,2.889,10.34,2.889c9.527,0,14.295-4.053,14.295-12.165
		c0-3.547-1.674-6.639-5.02-9.275c-1.014-0.608-2.459-1.293-4.334-2.053c-1.877-0.761-4.182-1.646-6.918-2.661
		c-5.071-1.825-8.72-3.65-10.949-5.475c-3.246-2.635-4.866-6.437-4.866-11.405c0-4.258,1.621-7.907,4.866-10.948
		c3.141-3.142,7.247-4.714,12.318-4.714c6.994,0,12.924,2.433,17.791,7.299l-4.562,3.954c-3.447-3.445-7.857-5.171-13.229-5.171
		c-7.3,0-10.949,3.193-10.949,9.58c0,2.84,1.114,5.171,3.345,6.995c1.825,1.421,4.714,2.79,8.668,4.105
		c3.445,1.217,6.283,2.357,8.516,3.422c2.229,1.064,3.9,2.003,5.018,2.813c4.357,3.345,6.539,7.857,6.539,13.533
		C444.6,714.298,442.623,718.708,438.668,722.053z"/>
	<path fill="#8AC640" d="M513.027,717.644c-6.287,6.287-13.99,9.428-23.114,9.428c-10.442,0-19.06-4.258-25.851-12.773v41.21h-6.234
		v-92.304h6.234v11.861c6.486-8.516,15.104-12.773,25.851-12.773c9.124,0,16.777,3.094,22.962,9.275
		c6.285,6.287,9.428,13.99,9.428,23.114S519.21,711.461,513.027,717.644z M508.465,676.13c-5.17-5.17-11.354-7.756-18.552-7.756
		c-7.299,0-13.483,2.535-18.552,7.604c-5.17,5.17-7.755,11.405-7.755,18.704c0,7.199,2.585,13.382,7.755,18.552
		c5.171,5.17,11.353,7.755,18.552,7.755c7.3,0,13.481-2.532,18.552-7.603c5.171-5.171,7.756-11.405,7.756-18.704
		C516.221,687.484,513.636,681.3,508.465,676.13z"/>
	<path fill="#8AC640" d="M588.905,726.007V715.21c-6.591,7.907-14.955,11.861-25.091,11.861c-9.124,0-16.779-3.091-22.962-9.276
		c-6.287-6.284-9.428-13.989-9.428-23.113s3.091-16.777,9.276-22.962c6.284-6.284,13.989-9.428,23.113-9.428
		c10.036,0,18.399,3.953,25.091,11.861v-10.949h6.234v62.803H588.905z M582.366,676.13c-5.17-5.17-11.354-7.756-18.552-7.756
		c-7.299,0-13.483,2.535-18.552,7.604c-5.17,5.17-7.755,11.405-7.755,18.704c0,7.199,2.585,13.382,7.755,18.552
		s11.353,7.755,18.552,7.755c7.299,0,13.481-2.532,18.552-7.603c5.17-5.171,7.756-11.405,7.756-18.704
		C590.122,687.484,587.536,681.3,582.366,676.13z"/>
	<path fill="#8AC640" d="M643.343,727.224c-9.328,0-17.083-3.092-23.266-9.276c-6.185-6.183-9.275-13.938-9.275-23.266
		c0-9.326,3.091-17.081,9.275-23.266c6.183-6.183,13.938-9.276,23.266-9.276c8.008,0,14.395,1.825,19.16,5.475v7.451l-3.953-2.585
		l-4.258-2.281c-3.854-1.316-7.504-1.977-10.949-1.977c-7.808,0-14.142,2.433-19.008,7.299c-4.968,4.968-7.451,11.354-7.451,19.16
		c0,7.705,2.483,14.042,7.451,19.008c4.966,4.969,11.303,7.451,19.008,7.451c7.3,0,13.687-2.433,19.16-7.299v7.755
		C656.824,725.349,650.438,727.224,643.343,727.224z"/>
	<path fill="#8AC640" d="M672.538,693.312c0,8.516,2.281,15.259,6.843,20.225c4.764,5.071,11.303,7.604,19.616,7.604
		c4.258,0,8.109-0.708,11.557-2.129c4.358-1.824,8.262-5.524,11.709-11.101l5.627,2.585c-3.954,7.504-10.036,12.571-18.248,15.207
		c-3.144,1.012-6.69,1.521-10.645,1.521c-9.428,0-17.184-3.092-23.266-9.276c-6.185-6.183-9.276-13.938-9.276-23.266
		c0-9.428,3.042-17.184,9.124-23.266c6.183-6.183,13.99-9.276,23.418-9.276c9.326,0,17.031,2.89,23.114,8.668
		c6.182,5.778,9.275,13.281,9.275,22.505H672.538z M715.42,673.393c-4.766-3.445-10.24-5.17-16.423-5.17
		c-12.978,0-21.493,6.387-25.547,19.16h50.941C723.377,681.604,720.386,676.942,715.42,673.393z"/>
</g>
<g>
	<path fill="#F05825" d="M218.033,186.728v-62.534c0-5.558-1.831-10.385-5.486-14.482c-3.658-4.093-8.924-6.144-15.798-6.144
		c-14.19,0-21.284,6.877-21.284,20.625v62.534h-8.996v-62.534c0-6.144-2.05-11.043-6.144-14.701
		c-4.244-3.95-9.291-5.924-15.14-5.924c-6,0-11.046,1.903-15.14,5.705c-4.097,3.658-6.144,8.632-6.144,14.92v62.534h-8.996V96.109
		h8.996v8.996c4.389-6.874,11.482-10.313,21.284-10.313c11.701,0,20.33,4.755,25.891,14.262
		c5.266-9.507,13.823-14.262,25.672-14.262c9.068,0,16.381,2.561,21.942,7.68c5.557,5.266,8.338,12.507,8.338,21.723v62.534H218.033
		z"/>
	<path fill="#F05825" d="M332.127,186.728v-15.579c-9.51,11.41-21.578,17.115-36.204,17.115c-13.165,0-24.211-4.46-33.132-13.385
		c-9.072-9.068-13.604-20.187-13.604-33.352s4.46-24.208,13.384-33.132c9.068-9.068,20.187-13.604,33.352-13.604
		c14.481,0,26.549,5.705,36.204,17.115V96.109h8.996v90.619H332.127z M322.693,114.759c-7.46-7.46-16.384-11.19-26.769-11.19
		c-10.532,0-19.456,3.658-26.769,10.971c-7.46,7.46-11.19,16.457-11.19,26.988c0,10.388,3.73,19.309,11.19,26.769
		c7.46,7.46,16.381,11.19,26.769,11.19c10.532,0,19.453-3.655,26.769-10.971c7.46-7.46,11.19-16.457,11.19-26.989
		C333.883,131.144,330.153,122.219,322.693,114.759z"/>
	<path fill="#F05825" d="M446.443,186.728v-16.237c-9.654,11.849-21.941,17.773-36.862,17.773c-13.165,0-24.211-4.46-33.132-13.385
		c-9.071-9.068-13.604-20.187-13.604-33.352s4.46-24.208,13.384-33.132c9.068-9.068,20.187-13.604,33.352-13.604
		c14.481,0,26.769,5.924,36.862,17.773V24.359h8.996v162.369H446.443z M436.35,114.759c-7.46-7.46-16.384-11.19-26.769-11.19
		c-10.532,0-19.456,3.658-26.769,10.971c-7.46,7.46-11.19,16.457-11.19,26.988c0,10.388,3.73,19.309,11.19,26.769
		c7.46,7.46,16.381,11.19,26.769,11.19c10.532,0,19.452-3.655,26.769-10.971c7.461-7.46,11.19-16.457,11.19-26.989
		C447.54,131.144,443.811,122.219,436.35,114.759z"/>
	<path fill="#F05825" d="M483.963,139.553c0,12.288,3.291,22.017,9.873,29.183c6.874,7.316,16.309,10.971,28.305,10.971
		c6.145,0,11.701-1.021,16.676-3.072c6.288-2.633,11.921-7.971,16.896-16.018l8.118,3.73c-5.705,10.827-14.481,18.14-26.33,21.941
		c-4.535,1.46-9.654,2.194-15.359,2.194c-13.604,0-24.794-4.46-33.57-13.384c-8.924-8.921-13.385-20.111-13.385-33.571
		c0-13.604,4.389-24.794,13.165-33.571c8.921-8.92,20.187-13.384,33.79-13.384c13.457,0,24.575,4.169,33.352,12.507
		c8.921,8.338,13.385,19.165,13.385,32.474H483.963z M545.838,110.81c-6.877-4.971-14.776-7.46-23.697-7.46
		c-18.726,0-31.013,9.215-36.861,27.646h73.504C557.32,122.658,553.004,115.932,545.838,110.81z"/>
</g>
<g>
	<path fill="#8AC640" d="M665.328,186.728v-15.579c-9.51,11.41-21.578,17.115-36.205,17.115c-13.164,0-24.211-4.46-33.131-13.385
		c-9.072-9.068-13.604-20.187-13.604-33.352s4.459-24.208,13.385-33.132c9.066-9.068,20.186-13.604,33.35-13.604
		c14.482,0,26.551,5.705,36.205,17.115V96.109h8.996v90.619H665.328z M655.893,114.759c-7.459-7.46-16.385-11.19-26.77-11.19
		c-10.531,0-19.455,3.658-26.768,10.971c-7.461,7.46-11.191,16.457-11.191,26.988c0,10.388,3.73,19.309,11.191,26.769
		c7.459,7.46,16.381,11.19,26.768,11.19c10.533,0,19.453-3.655,26.77-10.971c7.461-7.46,11.191-16.457,11.191-26.989
		C667.084,131.144,663.354,122.219,655.893,114.759z"/>
	<path fill="#8AC640" d="M714.695,105.105v81.623h-8.996v-81.623h-12.287v-8.996h12.287V56.394h8.996v39.715h21.064v8.996H714.695z"
		/>
</g>
</svg>
