<?xml version="1.0" encoding="UTF-8" standalone="no"?>
<svg
   xmlns:dc="http://purl.org/dc/elements/1.1/"
   xmlns:cc="http://creativecommons.org/ns#"
   xmlns:rdf="http://www.w3.org/1999/02/22-rdf-syntax-ns#"
   xmlns:svg="http://www.w3.org/2000/svg"
   xmlns="http://www.w3.org/2000/svg"
   xmlns:sodipodi="http://sodipodi.sourceforge.net/DTD/sodipodi-0.dtd"
   xmlns:inkscape="http://www.inkscape.org/namespaces/inkscape"
   width="210mm"
   height="297mm"
   viewBox="0 0 210 297"
   version="1.1"
   id="svg2617"
   inkscape:version="1.0.2-2 (e86c870879, 2021-01-15)"
   sodipodi:docname="MS-Logo-2-Objects.svg">
  <defs
     id="defs2611" />
  <sodipodi:namedview
     id="base"
     pagecolor="#ffffff"
     bordercolor="#666666"
     borderopacity="1.0"
     inkscape:pageopacity="0.0"
     inkscape:pageshadow="2"
     inkscape:zoom="2.8"
     inkscape:cx="383.57318"
     inkscape:cy="479.42753"
     inkscape:document-units="mm"
     inkscape:current-layer="layer1"
     inkscape:document-rotation="0"
     showgrid="false"
     inkscape:window-width="2560"
     inkscape:window-height="1369"
     inkscape:window-x="4472"
     inkscape:window-y="-8"
     inkscape:window-maximized="1" />
  <metadata
     id="metadata2614">
    <rdf:RDF>
      <cc:Work
         rdf:about="">
        <dc:format>image/svg+xml</dc:format>
        <dc:type
           rdf:resource="http://purl.org/dc/dcmitype/StillImage" />
        <dc:title></dc:title>
      </cc:Work>
    </rdf:RDF>
  </metadata>
  <g
     inkscape:label="Layer 1"
     inkscape:groupmode="layer"
     id="layer1">
    <path
       style="fill:#f25826;stroke-width:0.0397933;fill-opacity:1"
       d="m 82.625601,146.11413 c -0.62704,-0.0758 -1.13487,-0.33415 -1.6245,-0.82641 -0.37562,-0.37763 -0.60757,-0.77663 -0.74154,-1.27557 -0.0949,-0.35342 -0.0944,-1.22909 8.6e-4,-1.59174 0.12865,-0.48963 0.36804,-0.8998 0.74322,-1.2734 0.55367,-0.55135 1.10276,-0.78789 1.91508,-0.82498 0.86053,-0.0393 1.50181,0.15628 2.0995,0.64029 0.59172,0.47918 0.95816,1.22154 0.96034,1.94556 l 7e-4,0.22881 h -2.62575 -2.62576 l 0.0234,0.24871 c 0.0659,0.6996 0.25748,1.1544 0.65367,1.55145 0.46806,0.4691 1.00528,0.65123 1.82225,0.61781 0.54404,-0.0223 0.86529,-0.11455 1.20023,-0.3448 0.20175,-0.1387 0.5262,-0.48172 0.68124,-0.72024 l 0.0644,-0.0991 0.24395,0.1166 c 0.13418,0.0641 0.24396,0.13184 0.24396,0.15048 0,0.0483 -0.10853,0.21433 -0.31463,0.48129 -0.32337,0.41883 -0.89601,0.77464 -1.47607,0.91714 -0.31123,0.0765 -0.87515,0.1028 -1.24461,0.0581 z m 2.69467,-3.66387 c -0.2014,-0.65214 -0.5314,-1.0327 -1.15274,-1.32934 -0.70991,-0.33893 -1.6394,-0.31736 -2.31202,0.0537 -0.4007,0.22103 -0.848,0.79822 -0.98859,1.27568 l -0.0264,0.0895 h 2.25369 2.25369 z m -15.16014,3.59623 c -0.95439,-0.23482 -1.72229,-0.94899 -2.03763,-1.89507 -0.0965,-0.28939 -0.10619,-0.37444 -0.10701,-0.93514 -8.3e-4,-0.5737 0.007,-0.63904 0.11015,-0.93514 0.15353,-0.44017 0.40928,-0.83333 0.75688,-1.16352 0.34772,-0.33029 0.71944,-0.54863 1.159,-0.68074 0.41276,-0.12407 1.17176,-0.14072 1.57234,-0.0345 0.44199,0.11719 0.87547,0.35691 1.20951,0.66886 l 0.30264,0.28264 v -0.48146 -0.48145 h 0.27855 0.27855 v 2.82533 2.82533 h -0.27855 -0.27855 v -0.46608 -0.46607 l -0.18902,0.18076 c -0.41616,0.39799 -0.81375,0.6262 -1.31383,0.7541 -0.38712,0.099 -1.06535,0.10001 -1.46303,0.002 z m 1.31063,-0.56101 c 0.78037,-0.19959 1.39921,-0.77799 1.63822,-1.53118 0.11433,-0.36029 0.13876,-0.92816 0.0549,-1.27523 -0.18283,-0.75629 -0.81835,-1.43782 -1.5589,-1.67176 -0.37559,-0.11865 -0.94959,-0.13524 -1.32207,-0.0382 -0.73822,0.19228 -1.39581,0.81926 -1.62478,1.54915 -0.117,0.37298 -0.12364,1.04909 -0.0135,1.37453 0.13213,0.39038 0.31574,0.68719 0.60252,0.97397 0.59892,0.59892 1.41417,0.82577 2.22364,0.61874 z m -11.7949,-2.2692 v -2.82881 l 0.2885,0.0117 0.2885,0.0117 -2e-4,0.24378 -1.9e-4,0.24378 0.20923,-0.19123 c 0.3056,-0.2793 0.56635,-0.36884 1.08442,-0.37239 0.33681,-0.002 0.46799,0.0146 0.67649,0.0873 0.31644,0.11037 0.58243,0.30043 0.79268,0.56642 l 0.15889,0.20102 0.0579,-0.11207 c 0.0802,-0.15508 0.4172,-0.46269 0.62057,-0.56645 0.20263,-0.10337 0.62535,-0.19805 0.88851,-0.199 0.30176,-0.001 0.7835,0.11442 1.03544,0.24829 0.42327,0.22489 0.72575,0.65462 0.82012,1.1651 0.0271,0.1466 0.0429,0.98474 0.0429,2.27585 v 2.04379 l -0.2885,-0.0117 -0.2885,-0.0117 -0.0199,-2.12894 -0.0199,-2.12895 -0.0937,-0.17907 c -0.12091,-0.23093 -0.34177,-0.46209 -0.54294,-0.56827 -0.22604,-0.1193 -0.87962,-0.1456 -1.19024,-0.0479 -0.27417,0.0862 -0.50568,0.28079 -0.62681,0.52674 l -0.093,0.18892 -0.0199,2.16873 -0.0199,2.16874 -0.2885,0.0117 -0.2885,0.0117 v -2.04388 c 0,-2.36153 0.004,-2.33088 -0.32273,-2.67602 -0.12653,-0.13379 -0.28346,-0.24697 -0.43955,-0.31702 -0.22084,-0.0991 -0.27555,-0.10741 -0.60575,-0.0919 -0.27553,0.0129 -0.40613,0.039 -0.54205,0.10823 -0.2273,0.11572 -0.45978,0.33596 -0.57043,0.54036 -0.0846,0.15621 -0.0865,0.1991 -0.10606,2.30801 l -0.0199,2.14884 -0.2885,0.0117 -0.2885,0.0117 z m 15.67857,-2.20679 v -5.0356 h 0.29822 0.29822 l 0.0102,3.28261 0.0102,3.28261 1.1739,-1.17322 1.17391,-1.17322 0.41759,-4e-4 0.4176,-4e-4 -1.27025,1.27072 -1.27025,1.27071 1.63857,1.63178 c 0.90122,0.89759 1.63857,1.64193 1.63857,1.65421 0,0.0123 -0.16555,0.0223 -0.36788,0.0223 h -0.36789 l -1.46162,-1.46122 -1.46162,-1.46122 -0.13974,0.13543 -0.13973,0.13544 -0.0105,1.31584 -0.0105,1.31583 -0.2885,0.0117 -0.28851,0.0117 z m -15.75333,-15.25254 c 0.004,-6.51364 0.013,-7.70155 0.0545,-7.25233 0.19108,2.06432 0.6981,3.906 1.57649,5.72633 0.40365,0.83651 0.6286,1.23243 1.13268,1.99357 1.58325,2.39069 3.79458,4.37138 6.2638,5.61049 l 0.39868,0.20007 v 0.75571 0.75571 h -4.71551 -4.71551 z m 23.59262,7.09642 c 0,-0.38122 0.0112,-0.72237 0.0249,-0.75811 0.0137,-0.0357 0.15249,-0.12903 0.3084,-0.20732 2.21544,-1.11242 4.253353,-2.81401 5.760559,-4.80989 1.623789,-2.15026 2.69696,-4.63833 3.136975,-7.27285 0.09789,-0.58611 0.139344,-0.95018 0.213785,-1.87759 0.007,-0.0875 0.01579,3.39089 0.01947,7.72986 l 0.0067,7.88903 h -4.735407 -4.735412 z m 23.637239,-7.56399 v -8.25712 h 4.73541 4.73541 v 8.25712 8.25712 h -4.73541 -4.73541 z m -47.221459,-9.2221 c 0.0864,-3.26623 0.89822,-5.57859 3.03828,-8.65455 1.00174,-1.43982 2.23661,-2.72886 3.54945,-3.70515 1.97251,-1.46685 5.25396,-2.83009 7.62516,-3.1678 1.29191,-0.18399 2.67665,-0.16526 4.39014,0.0594 3.12664,0.40992 5.83065,1.54616 8.20321,3.44705 0.53253,0.42666 1.473595,1.3047 1.473595,1.3749 0,0.0215 -0.113271,0.15816 -0.251714,0.30376 -1.514661,1.59302 -2.812531,3.78517 -3.551571,5.99874 -0.48761,1.4605 -0.81317,3.25346 -0.85553,4.71175 -0.004,0.12568 -0.0212,0.0604 -0.0588,-0.21886 -0.23343,-1.73393 -0.92941,-3.13578 -2.13663,-4.30366 -2.3788,-2.30127 -6.03776,-2.64171 -8.80716,-0.81944 -1.85908,1.22328 -3.0243,3.24828 -3.18262,5.53098 l -0.0283,0.40788 h -4.71654 -4.71654 z"
       id="path3196" />
    <path
       style="fill:#89c541;fill-opacity:1;stroke-width:0.0397933"
       d="m 91.71628,148.61822 c -0.0104,-0.0274 -0.0143,-1.88521 -0.009,-4.12856 l 0.0102,-4.07881 0.2885,-0.0117 0.28851,-0.0117 v 0.51245 0.51246 l 0.31816,-0.30973 c 0.50809,-0.49462 1.06866,-0.73221 1.83068,-0.77592 0.66289,-0.038 1.24296,0.11423 1.76464,0.46314 0.83122,0.55595 1.29944,1.43929 1.29944,2.45148 0,0.79213 -0.30009,1.51227 -0.85968,2.06299 -0.60746,0.59783 -1.26599,0.84221 -2.17772,0.80816 -0.78536,-0.0293 -1.30675,-0.2506 -1.88516,-0.80002 l -0.29036,-0.27583 v 1.81566 1.81566 h -0.27981 c -0.1872,0 -0.28607,-0.0165 -0.29875,-0.0497 z m 3.3805,-3.11379 c 0.765,-0.16207 1.44221,-0.74871 1.69972,-1.47239 0.10839,-0.30462 0.15046,-0.89051 0.0898,-1.25057 -0.12497,-0.74168 -0.74445,-1.47149 -1.48175,-1.74567 -0.32196,-0.11973 -0.97416,-0.16346 -1.33146,-0.0893 -0.69171,0.1436 -1.38609,0.74207 -1.65626,1.4275 -0.22022,0.55871 -0.18719,1.35795 0.0776,1.87792 0.20948,0.41133 0.66664,0.86569 1.08655,1.07992 0.41503,0.21173 1.01079,0.27956 1.51578,0.17258 z m -6.78375,0.61427 c -0.27412,-0.0403 -0.59135,-0.16305 -0.80787,-0.31248 -0.2152,-0.14852 -0.59227,-0.54632 -0.6816,-0.71907 -0.0792,-0.15315 -0.0915,-0.13663 0.25911,-0.34758 l 0.14683,-0.0883 0.15431,0.22404 c 0.33799,0.49075 0.71004,0.67134 1.36942,0.66471 0.84186,-0.009 1.20469,-0.31056 1.21051,-1.00791 0.002,-0.25804 -0.0129,-0.3273 -0.10506,-0.48463 -0.18177,-0.31015 -0.32805,-0.40365 -1.1121,-0.71082 -0.87427,-0.34251 -1.08586,-0.45808 -1.32445,-0.72345 -0.23161,-0.25761 -0.31407,-0.52221 -0.29388,-0.94302 0.0181,-0.37808 0.1291,-0.62292 0.40931,-0.90314 0.36886,-0.36885 0.86051,-0.51144 1.46438,-0.4247 0.36882,0.053 0.85219,0.26926 1.11998,0.50112 l 0.155,0.1342 -0.16977,0.15433 c -0.24416,0.22196 -0.26627,0.22983 -0.36875,0.13128 -0.0494,-0.0475 -0.20622,-0.14169 -0.34848,-0.20927 -0.21514,-0.10221 -0.3189,-0.12552 -0.61679,-0.13856 -0.42697,-0.0187 -0.64916,0.0334 -0.83376,0.19548 -0.17512,0.15376 -0.23308,0.33535 -0.21412,0.6709 0.0261,0.46138 0.20928,0.62295 1.06194,0.93652 1.22913,0.45203 1.65657,0.82391 1.75607,1.52785 0.10318,0.72998 -0.24102,1.35983 -0.92538,1.69336 -0.40983,0.19974 -0.80059,0.25339 -1.30485,0.17918 z m 19.62059,0.0161 c -0.33762,-0.0446 -0.68093,-0.14795 -0.99401,-0.29934 -0.2765,-0.13368 -0.40311,-0.22883 -0.70123,-0.52694 -0.30983,-0.30983 -0.3908,-0.41969 -0.54582,-0.74057 -0.24392,-0.50491 -0.32325,-0.90643 -0.29416,-1.48892 0.0121,-0.24189 0.0512,-0.54723 0.0868,-0.67855 0.21101,-0.77658 0.79504,-1.47694 1.51323,-1.81464 0.37295,-0.17536 0.67673,-0.24223 1.19867,-0.26382 0.62194,-0.0257 1.02166,0.0494 1.48738,0.2797 l 0.33825,0.16723 0.0115,0.3482 c 0.006,0.1915 0.001,0.34819 -0.0109,0.34819 -0.0123,0 -0.16174,-0.081 -0.33209,-0.17997 -0.42354,-0.24609 -0.66185,-0.32986 -1.09218,-0.38389 -1.02126,-0.12824 -1.98798,0.35817 -2.38607,1.20055 -0.19049,0.4031 -0.24631,0.66241 -0.24414,1.13411 0.003,0.71737 0.20048,1.21162 0.667,1.672 0.15564,0.15358 0.37564,0.32856 0.48892,0.38885 0.46742,0.2488 1.26215,0.34055 1.7853,0.20611 0.30488,-0.0783 0.75024,-0.29076 0.95345,-0.45474 l 0.15918,-0.12845 0.0117,0.32869 c 0.006,0.18078 0.004,0.34906 -0.006,0.37395 -0.0309,0.0804 -0.47622,0.29212 -0.83034,0.39474 -0.34311,0.0994 -0.96447,0.15716 -1.26477,0.11751 z m 4.87623,-0.0154 c -0.68125,-0.10694 -1.10497,-0.3223 -1.59746,-0.81191 -0.30847,-0.30667 -0.38966,-0.41638 -0.54628,-0.73824 -0.24682,-0.5072 -0.32335,-0.90103 -0.29369,-1.51125 0.0397,-0.81669 0.27464,-1.36234 0.82506,-1.91614 0.28774,-0.28952 0.40032,-0.37188 0.71741,-0.52486 0.44883,-0.21655 0.84841,-0.30563 1.37093,-0.30563 0.52765,0 0.92542,0.0875 1.35297,0.29763 0.91999,0.45214 1.45719,1.22206 1.52072,2.1795 l 0.0231,0.34819 h -2.63422 -2.63423 l 0.0258,0.24871 c 0.0737,0.71161 0.2617,1.1558 0.65648,1.55145 0.47039,0.47143 1.01346,0.6546 1.8243,0.61532 0.45481,-0.022 0.70229,-0.0755 0.96529,-0.20845 0.26673,-0.13486 0.54781,-0.37918 0.75171,-0.65338 0.11462,-0.15415 0.22345,-0.28026 0.24184,-0.28026 0.0648,0 0.47293,0.21598 0.47293,0.25026 0,0.0702 -0.2997,0.48338 -0.48523,0.66891 -0.35596,0.35596 -0.79628,0.60045 -1.31114,0.72802 -0.32846,0.0814 -0.93196,0.11147 -1.24627,0.0621 z m 2.67712,-3.72883 c -0.25623,-0.93828 -1.28332,-1.58172 -2.39945,-1.5032 -0.64802,0.0456 -1.18698,0.2922 -1.55295,0.71056 -0.16227,0.1855 -0.41067,0.63023 -0.47607,0.85233 l -0.0264,0.0895 h 2.2478 2.24779 z m -14.99184,3.67098 c -0.93119,-0.20981 -1.73286,-0.951 -2.06053,-1.90506 -0.10226,-0.29775 -0.11107,-0.37078 -0.11107,-0.92031 0,-0.55128 0.009,-0.62383 0.11548,-0.94927 0.29362,-0.89582 1.09092,-1.6418 2.01346,-1.88382 0.35681,-0.0936 1.12409,-0.0942 1.47235,-0.001 0.44327,0.11839 0.87593,0.35783 1.20951,0.66936 l 0.30264,0.28263 v -0.48322 -0.48319 l 0.2885,0.0117 0.2885,0.0117 v 2.80543 2.80543 l -0.2885,0.0117 -0.2885,0.0117 v -0.46289 -0.4629 l -0.26861,0.24618 c -0.3265,0.29924 -0.63986,0.48765 -1.04073,0.62576 -0.25666,0.0884 -0.38338,0.10593 -0.8395,0.11604 -0.36479,0.008 -0.61931,-0.007 -0.793,-0.0457 z m 1.20426,-0.55647 c 0.81262,-0.17218 1.44783,-0.74499 1.71771,-1.54895 0.14137,-0.42113 0.14111,-1.00182 -6.3e-4,-1.45058 -0.23056,-0.72984 -0.88252,-1.34462 -1.62932,-1.53638 -0.30414,-0.0781 -0.89362,-0.0781 -1.1933,0 -0.53824,0.14019 -1.05389,0.52167 -1.37345,1.01609 -0.41808,0.64687 -0.46587,1.54897 -0.11942,2.25429 0.47893,0.97502 1.53719,1.49046 2.59843,1.26561 z M 75.1837,133.62669 c -4.89701,-0.29047 -9.32871,-2.67851 -12.296822,-6.6262 -1.82968,-2.43353 -2.9481,-5.33785 -3.24008,-8.4138 -0.0342,-0.35976 -0.0621,-0.85668 -0.0621,-1.10427 v -0.45017 h 4.71551 4.715512 l 4e-5,0.0895 c 8e-5,0.2442 0.0915,1.00909 0.16227,1.35722 0.45634,2.24608 2.06052,4.20588 4.17079,5.09539 1.60107,0.67488 3.37087,0.74646 4.99777,0.20214 2.41926,-0.80942 4.22153,-2.86351 4.71713,-5.37624 0.0613,-0.3108 0.0952,-0.69223 0.1201,-1.35236 0.0402,-1.06455 0.12452,-2.01499 0.24148,-2.72163 1.08814,-6.57482 5.95578,-11.87542 12.35144,-13.45007 1.29758,-0.31946 2.17402,-0.43312 3.5814,-0.46444 1.56539,-0.0348 2.59431,0.06 3.96017,0.36504 4.42141,0.98742 8.18573,3.65679 10.60578,7.52078 0.36809,0.58772 0.95621,1.74383 1.23482,2.4274 0.75669,1.8565 1.05802,3.31726 1.11842,5.42184 l 0.0254,0.8854 h -4.73588 -4.73589 l -0.022,-0.48747 c -0.11093,-2.4623 -1.70379,-4.83414 -3.98885,-5.9396 -1.00682,-0.48707 -1.92192,-0.69448 -3.06408,-0.69448 -1.1308,0 -2.01078,0.19357 -2.99958,0.65982 -2.30385,1.08635 -3.83709,3.29446 -4.06115,5.84868 -0.0229,0.26058 -0.0418,0.67075 -0.0422,0.9115 -10e-4,0.99471 -0.18919,2.46113 -0.46121,3.6013 -0.77386,3.24363 -2.58183,6.27561 -5.06079,8.48697 -2.64827,2.3624 -5.85257,3.78627 -9.32563,4.14397 -0.73208,0.0754 -1.93312,0.1046 -2.62186,0.0637 z"
       id="path3212" />
  </g>
</svg>
